# xmcd
#
# Track frame offsets:
#	150
#	11851
#	33607
#	49156
#	53776
#	73553
#	96672
#	111119
#	126352
#	143035
#	153724
#	171199
#
# Disc length: 2706 seconds
#
# Revision: 0
# Processed by: cddbd v1.5.2PL0 Copyright (c) Steve Scherf et al.
# Submitted via: dBpowerAMP V4.0
#
DISCID=b20a900c
DTITLE=Eksprompt - Umbes kolmveerand tundi keskööni
DYEAR=2006
DGENRE=Instrumental
TTITLE0=Intro
TTITLE1=Laul otse südamest
TTITLE2=Orbitaaljaam
TTITLE3=Kella viie funk
TTITLE4=Tähtede keskel
TTITLE5=Virmalised ja kuupaiste peegeldus sinu kehalt
TTITLE6=Capagabangaa
TTITLE7=Pole aega magamiseks
TTITLE8=Üksi pimedal tänaval
TTITLE9=Kella seitsme funk [Mes, Eksprompt]
TTITLE10=Vihmapiisad [Mes, Eksprompt]
TTITLE11=Outro
EXTD=
EXTT0=
EXTT1=
EXTT2=
EXTT3=
EXTT4=
EXTT5=
EXTT6=
EXTT7=
EXTT8=
EXTT9=
EXTT10=
EXTT11=
PLAYORDER=
